<svg xmlns="http://www.w3.org/2000/svg" width="843.956" height="1154.386" viewBox="0 0 843.956 1154.386">
  <g>
    <path d="M842.348,504.963c-6.312-79.694-29.943-157.116-59.487-231.4-27.32-68.689-60.918-136.871-114.284-188.025-85.969-82.4-221.014-107.47-331.87-65.567a166.823,166.823,0,0,0-59.321,38.664c-9.648,9.722-20.359,21.048-27.538,30.206-24.236,30.923-37.632,68.932-59.372,101.657C154.644,244.433,98,281.461,59.711,333.683,20.548,387.1,2.763,454.032.316,520.221s9.6,132.1,25.489,196.4c14.97,60.585,34.874,122.884,78.718,167.295C148.6,928.56,210.843,949.159,270.6,968.268c74.729,23.9,154.455,47.994,230.329,28.026,57.2-15.054,104.989-53.5,149.8-92.113,56.653-48.811,112.732-100.85,148.2-166.686C836.84,667.113,848.66,584.658,842.348,504.963Z" fill="#f7d3bc"/>
    <g>
      <path d="M694.036,406.165c-14.21,9.379-28.608,18.471-42.867,27.77a365.646,365.646,0,0,1-34.6,20.527c-20.764,10.7-40.608,23.04-60.691,34.927-17.778,9.576-36.209,17.9-53.355,28.62-8.758,4.8-18.483,7.3-28.1,9.8-8.113,2.163-15.965,5.186-23.977,7.676-3.173.9-6.331,1.824-9.664,1.683-2.94.251-5.846-.407-8.793-.328-3.759-.238-7.363.788-11.093,1.065-.8-.116-1.6-.279-2.4-.447.5-.424,1.01-.847,1.526-1.251,2.972-1.436,6.2-2.381,9.064-4.019,3.944-2.659,7.481-5.83,11.138-8.858,4.038-2.666,8.548-4.554,12.476-7.372,4.127-2.728,7.664-6.2,11.445-9.368,12.594-8.332,23.081-19.2,34.109-29.406,8.992-6.589,17.75-13.506,26.1-20.891,7.3-6.91,14.5-13.916,22.086-20.519,13.334-11.763,26.656-23.545,39.289-36.07q23.436-23.393,47.367-46.27c5.918-5.734,11.832-11.476,17.652-17.308,1.4-1.424,1.253-4.464-.593-5.458a1.4,1.4,0,0,0-1.516.266c-2.1,2.1-4.215,4.172-6.336,6.246q-8.871,8.661-17.871,17.2c-15.662,15.455-32.313,29.811-48.739,44.437-13.344,12.018-25.97,24.791-38.972,37.176C530.2,442,523.3,447.6,516.959,453.818c-8.263,7.514-15.358,16.287-24.015,23.348-4.681,4.1-9.524,7.218-14.563,11.1-5.41,4.482-10.8,9-16.073,13.641-4.566,3.29-9.134,6.579-13.579,10.031-3.056,2.977-6.157,5.9-9.4,8.679q-3.373,1.783-6.748,3.567c-4.9,2.476-8.98,6.18-13.25,9.566a38.968,38.968,0,0,0-5.73,1.758c-.665.516-1.336,1.03-2.017,1.527-.194-.025-.39-.037-.584-.079a5.045,5.045,0,0,0-.718-.679.957.957,0,0,0,.168-.121c.777-.3,1.483-.388,1.569-1.427a14.36,14.36,0,0,0,1.962-3.008c1.054-1.447,2.658-2.375,3.683-3.83,3.242-4.654,5.494-9.97,9.775-13.84a137.364,137.364,0,0,0,11.308-12.614c5.064-6.438,9.312-13.48,14.324-19.953,5.157-5.684,10.651-11.05,15.468-17.035,4.113-5.164,7.627-10.814,11.509-16.164,7.181-9.285,14.4-18.545,21.249-28.09,8.363-11.815,16.176-24.013,24.375-35.941,8.479-12.222,17.877-23.755,26.9-35.57,4.344-5.832,8.475-11.819,12.973-17.535,4.081-5.54,7.855-11.3,11.866-16.895a6.954,6.954,0,0,0,.325-7.223,3.573,3.573,0,0,0-2.3-1.91,2.591,2.591,0,0,0-2.5,1.07c-6.751,9.024-12.905,18.453-18.93,27.969-10.378,15.747-19.942,32.04-31.5,46.977-15,19.051-29.779,38.262-43.242,58.445-4.63,6.781-10.368,12.732-15.039,19.481-4.58,6.274-8.374,13.076-12.835,19.438-4.76,5.988-10.259,11.333-15.126,17.225-5.23,6.175-9.3,13.181-13.879,19.829-2.1,2.357-4.935,4.613-6.973,7.109a8.669,8.669,0,0,0-.847,1.085c1.033-3.088,1.752-6.289,2.507-9.47,2.59-7.861,7.138-14.9,9.8-22.764,3.313-8.551,5.307-17.549,8.841-26.023,2.292-5.607,5.271-10.934,7.726-16.48,2.747-5.855,4.848-12,7.305-17.981,9.15-24.945,22.126-48.237,31.347-73.16,4.883-12.32,11.083-24.027,17.266-35.726C506.38,308,513.138,293.74,519.91,279.477c4.3-9.2,8.492-18.46,13.226-27.453a6.872,6.872,0,0,0-.4-7.074,2.6,2.6,0,0,0-4.668.266c-12.458,23.719-23.149,48.329-33.613,72.976-3.795,9.315-7.27,18.789-11.785,27.785-4.149,8.856-9.277,17.2-13.352,26.094-5.47,11.035-9.91,22.548-14.488,33.973-5.731,13.771-12.278,27.284-16.758,41.531-2.338,7.545-4.441,15.172-7.442,22.484a187.386,187.386,0,0,0-13.936,37.5c-2.379,6.859-6.958,12.839-7.648,20.248-.236.542-.464,1.091-.683,1.643a50.024,50.024,0,0,0-.058-7.692c-.17-2.852-.533-5.7-.773-8.551.267-6.643.906-13.266.98-19.917.246-10.381-1.307-20.692-1.176-31.068.759-9.58,1.915-19.149,2.04-28.764-.238-7.842.338-15.663.785-23.485,1.585-20.427,3.336-40.869,5.574-61.23a198.188,198.188,0,0,1,7.286-28.821q6.279-19.848,13.1-39.526,10.992-30.571,22.767-60.856c1-2.578.757-6.145-1.309-8.176a3.016,3.016,0,0,0-2.98-.891,4.06,4.06,0,0,0-2.372,2.477c-7.46,19.25-14.437,38.687-21.363,58.137a327.673,327.673,0,0,0-11.719,38.687c-3,12.776-4.6,25.844-7.195,38.711-2.457,12.165-4.584,24.408-5.906,36.754-1.022,14.849-1.563,29.721-2.477,44.574-.873,10.75.169,21.518.852,32.25.246,7.618-.719,15.2-.75,22.809-.272,9.452.921,18.834,1.612,28.238-.452,6.35-1.159,12.718-.169,19.045a3.082,3.082,0,0,0-.254.257c-.639-3.178-2.027-6.235-2.595-9.446C401,512.936,397.18,503.577,393,494.45c-2.487-6.833-3.811-14.028-6.452-20.8-3.081-8.9-7.449-17.305-10.305-26.282-4.8-13.382-6.744-27.575-9.519-41.476-1.36-7.115-2.389-14.284-3.543-21.434-2.76-18.307-6.69-36.465-8.016-54.949-1.388-34.965-.028-70.063.793-105.047q.24-6.768.582-13.535c.211-4.176.449-8.344.883-12.5.234-3.155-1.12-7.429-4.519-8.293-2.946-.543-4.875,2.8-5.153,5.285-1.172,10.613-1.574,21.27-1.816,31.938-.581,23.063.051,46.141,1.656,69.152.953,11.663,2.32,23.3,3.039,34.98.737,9.314.757,18.661,1.211,27.985q1.014,14.679,3.457,29.176c3.785,18.571,9.26,36.712,15,54.757,2.886,10.384,4.8,21.028,7.906,31.336,2.145,8.4,6.4,15.939,9.689,23.918,1.579,4.933,3.1,9.9,4.967,14.731,1.909,5.577,5.457,10.4,7.238,16.015a19.4,19.4,0,0,1,.535,2.328c-.552-.616-1.166-1.183-1.787-1.75a27.614,27.614,0,0,0-4.462-5.393c-7.531-6.877-11.961-16.426-18.715-24.027-3.669-4.528-7.651-8.8-11.124-13.485-4.96-7.118-8.741-14.98-13.27-22.375-3.242-5.5-6.932-10.726-10.593-15.954-8.814-14.455-16.8-29.465-24.363-44.614a80.487,80.487,0,0,1-4.962-16.518c-2.8-15.324-5.273-31.15-7.078-47.073-.521-5.161-1.121-10.321-1.984-15.438-.227-1.4-1.329-3.528-3.083-2.993-1.492.454-2.046,2.536-1.9,3.9.27,2.559.449,5.125.715,7.684.814,7.55,1.6,15.1,2.52,22.64,1.631,15.357,5.914,30.184,11.27,44.621,2.616,8.629,5.422,17.218,9.6,25.239,3.861,7.923,8.7,15.3,13.559,22.632,5.876,9.815,11.486,19.813,18.832,28.645,6.32,7.417,11.677,15.5,17.089,23.582,5.245,7.576,11.792,14.09,18.187,20.682,2.951,3.44,4.97,7.755,8.948,10.182.61.613,1.166,1.294,1.826,1.843a2.727,2.727,0,0,0,1.194.56,22.206,22.206,0,0,0,.575,2.685,2.476,2.476,0,0,0,.914,1.426,2.049,2.049,0,0,0,.335.144c-.881,3.228-1.815,6.44-2.773,9.652-3.786,13.383-8.868,26.319-13.669,39.359-5.943,16.608-12.045,33.184-17.254,50.039-4.813,15.389-8.752,31.029-13.433,46.457-4.163,13.028-8.521,26-12.117,39.195-4,15.006-7.141,30.215-10.1,45.456-.134-6.7-.54-13.4-.973-20.074-.915-21.08-3.356-42.017-5.477-63-1.022-9.731-2.129-19.475-4.113-29.063-2.914-12.861-7.171-25.376-9.869-38.3-3.921-19.181-7.884-38.4-14.717-56.8-5.407-15.438-12.822-30.069-18.758-45.3-2.487-4.436-9.831-33.353-16.1-29.618-2.831,1.856-2.451,5.455-2.774,8.423-.838,11.625-.954,23.3-1.265,34.945-.069,16.2-.806,32.408-.645,48.59a372.853,372.853,0,0,0,5.457,54.285c1.986,14.946,4.629,29.833,9.129,44.246,4.482,14.223,9.773,28.18,14.788,42.22,2.077,6.524,3.835,13.151,6.314,19.534,4.423,13.407,11.96,25.435,17.395,38.416,1.145,3.39,1.955,6.907,3.351,10.2,1.272,3.514,3.212,6.666,4.782,10.021.471,1.281.792,2.624,1.354,3.866a12.878,12.878,0,0,0,1.907,2.1,1.424,1.424,0,0,0,.623.849c-2.5,8.354-4.948,16.723-6.912,25.226-2.733,11.577-4.872,23.288-7.325,34.926-3.816,15.384-7.812,30.737-10.1,46.437C297.3,926.837,296.5,943,293.132,958.8c-1.976,9.939-4.2,19.825-5.9,29.82-2.063,13.42-3.179,26.965-4.126,40.5q-.531,11.865-1.842,23.66c-1.877,12.971-4.769,25.941-4.47,39.106a212.892,212.892,0,0,1-1.047,26.922c-.481,7,.64,13.96.639,20.955-.135,3.843-1.016,7.635-.588,11.49a3.892,3.892,0,0,0,1.23,2.953c3.935,1.677,2.226-9.165,2.766-13.823.813-7.5,2.574-14.908,2.511-22.5q-.045-6.33.043-12.657c.6-6.636,1.729-13.224,2.1-19.874.593-10.441.251-20.9.718-31.348,1.349-15.3,4.61-30.339,7.067-45.484,2.555-15,3.9-30.174,5.307-45.32,2.212-22.013,9.349-43.076,13.381-64.766q2.646-15.057,5.476-30.08c2.445-10.023,5.009-20.018,7.594-30.006,3.89-16.648,6.739-33.5,9.971-50.282,5.739-23.033,14.377-45.2,20.576-68.113,5.209-19.071,10.128-38.221,16.739-56.875,8.862-26.932,16.856-54.152,25.2-81.246,2.3-7.984,4.562-15.984,6.941-23.949,1.723-5.766,3.395-11.56,4.8-17.415a1.072,1.072,0,0,0,.309.389c.421.277.9.79,1.444.79.079-.01.154-.037.231-.054.785.729,1.75,1.217,2.6,1.866,2.674,1.906,4.913,4.37,7.6,6.254a82.244,82.244,0,0,0,10.663,5.956c3.952,2.238,7.718,4.853,11.966,6.52a70.1,70.1,0,0,0,14.555,3.864c8.533,1.3,16.818,3.745,25.179,5.824a171.7,171.7,0,0,0,19.051,2.227,96.064,96.064,0,0,0,17.957-.669c7.9-1.2,15.6-3.521,23.633-3.89,10.671-.68,21.467-1.57,31.641-5.082a319.949,319.949,0,0,0,37.269-17c1.422-.921,1.644-3.006,1.215-4.524-.367-1.293-1.563-2.851-3.055-2.054-3.238,1.726-6.527,3.343-9.789,5.027a115.643,115.643,0,0,1-16.664,7.441c-6.19,2.038-12.547,3.5-18.828,5.227-9.988,2.657-19.731,6.4-29.988,7.914-9.607.956-19.294-.031-28.934.43a185.329,185.329,0,0,1-24.043-.407,62.132,62.132,0,0,1-18.047-3.01c-5.53-1.877-10.963-4.047-16.414-6.146-5.249-2.1-10.809-3.384-15.888-5.881-2.771-1.58-5.381-3.449-8.159-5.017-2.179-1.346-4.628-2.213-6.921-3.337a29.879,29.879,0,0,0,4.146-.012c2.011.371,4.04.679,6.07.946,6.071.652,11.908-2.11,17.81-3.212,8.411-.795,16.994-1.112,25.112-3.624,8.144-2.214,15.679-6.078,23.1-10.015,4.337-1.585,8.666-3.181,13.018-4.7,5.314-1.857,10.585-3.8,15.851-5.773,13.483-6.538,26.406-14.167,39.567-21.325,14.8-7.617,29.543-15.374,43.574-24.339,13.667-8.557,26.552-18.312,40.363-26.656,16.856-10.547,33.895-20.8,50.4-31.9C698.189,411.155,697.331,404.922,694.036,406.165ZM324.737,799.44c-.144-1.639-1.244-2.978-1.782-4.492-1.05-2.168-1.148-4.629-2.187-6.785a83.388,83.388,0,0,0-6.438-13.143c-4.738-10.957-8.191-22.408-12.6-33.494q-5.257-12.219-10.594-24.4c-1.557-5.1-3.253-10.147-4.742-15.264-6.063-22.727-10.913-45.776-15.883-68.75-1.7-13.252-2.439-26.6-3.738-39.894-.848-10.946-2.255-21.843-3.071-32.786-.791-18.582.017-37.257,1.248-55.809a124.26,124.26,0,0,0,5.169,11.342c6.941,15.148,12.736,30.774,18.306,46.471,7.226,20.851,15.976,41.281,21.228,62.757,2.9,12.352,3.552,25.032,5.284,37.571,3.015,19.812,6.594,39.565,7.734,59.606,1.67,17.37,3.571,34.754,4.061,52.208-.01,3.412-.05,6.825-.065,10.237a7.226,7.226,0,0,0,.785,3.625,5.186,5.186,0,0,0,.842,1.092c-1.114,3.892-2.271,7.772-3.433,11.651C324.824,800.605,324.784,800.022,324.737,799.44Z"/>
      <path d="M355.716,156.886c3.674-4.193,4.655-10.32,3.264-15.624-1.034-4.607-5.159-9.879-10.453-8.449a7.644,7.644,0,0,0-4.367,4.247,9.682,9.682,0,0,0-2.18,2.624c-2.707,4.46-2.569,13.74.5,17.961C345.634,162.4,352.927,161.6,355.716,156.886Z"/>
      <path d="M470.685,183.5a7.771,7.771,0,0,0,3.2,1.471c12.412.6,13.435-20.585,3.919-25.4-7.813-2.346-12.893,9.58-12.882,15.9C462.927,179.23,465.923,186.3,470.685,183.5Z"/>
      <path d="M547.282,221.186c13.384.884,12.693-29.953-1.163-25.724C538.548,201.159,536.542,217.839,547.282,221.186Z"/>
      <path d="M595.292,279.409a6.755,6.755,0,0,0,4.676-1.012c7.763,1.407,10.294-8.839,9.094-14.773-.72-4.842-4.6-11.845-10.413-9.882a9.809,9.809,0,0,0-7.837,4.163C586.167,264.134,586.807,276.884,595.292,279.409Z"/>
      <path d="M668.77,317.886a7.513,7.513,0,0,0,7.918.261c7.086-3.445,8.691-13.109,5.937-19.859-2.984-7.286-10.914-8.853-14.606-1.15C661.816,301.75,662.8,313.46,668.77,317.886Z"/>
      <path d="M731.059,382.762c2.169-4.963-3.042-10.4-8.027-10.371-6.96,1.435-8.182,12.255-5.212,17.632,4.986,8.31,15.057.731,13.238-7.26Z"/>
      <path d="M633.973,516.394c-3.362-1.38-8.151.957-9.949,3.945-2.776,5.066.023,12.894,6.106,13.715,7.66.958,12.533-8.992,6.91-14.359C635.811,518.768,635.54,517,633.973,516.394Z"/>
      <path d="M292.676,306.048c6.184,3.744,10.532-4.787,11.262-9.852.605-3.992-1.09-9.66-5.629-10.449-2.629-.437-4.945,1.509-6.36,3.531C288.541,294.05,287.82,302.005,292.676,306.048Z"/>
    </g>
  </g>
</svg>
